<?xml version="1.0" encoding="iso-8859-1"?>
<!-- Generator: Adobe Illustrator 18.0.0, SVG Export Plug-In . SVG Version: 6.00 Build 0)  -->
<!DOCTYPE svg PUBLIC "-//W3C//DTD SVG 1.1//EN" "http://www.w3.org/Graphics/SVG/1.1/DTD/svg11.dtd">
<svg version="1.1" id="Capa_1" xmlns="http://www.w3.org/2000/svg" xmlns:xlink="http://www.w3.org/1999/xlink" x="0px" y="0px"
	 viewBox="0 0 494.072 494.072" style="enable-background:new 0 0 494.072 494.072;" xml:space="preserve">
<path d="M379.012,77.334l-21.93-3.311c-32.992-4.985-66.717-1.078-97.705,11.315c-22.756,9.105-47.924,10.234-71.404,3.206
	l-53.305-15.962v-7.248c9.256-6.508,15.342-17.217,15.342-29.386C150.01,16.101,133.912,0,114.055,0
	C94.211,0,78.115,16.101,78.115,35.949c0,12.159,6.08,22.872,15.324,29.378v408.13c0,11.387,9.229,20.615,20.615,20.615
	c11.387,0,20.613-9.229,20.613-20.615v-187.57l53.305,15.961c23.48,7.031,48.648,5.904,71.404-3.205
	c30.988-12.395,64.713-16.299,97.705-11.313l8.963,1.346c12.516,1.891,25.225-1.766,34.809-10.018
	c9.59-8.249,15.103-20.27,15.103-32.924V120.271C415.957,98.785,400.256,80.54,379.012,77.334z"/>
<g>
</g>
<g>
</g>
<g>
</g>
<g>
</g>
<g>
</g>
<g>
</g>
<g>
</g>
<g>
</g>
<g>
</g>
<g>
</g>
<g>
</g>
<g>
</g>
<g>
</g>
<g>
</g>
<g>
</g>
</svg>
