<?xml version="1.0" encoding="iso-8859-1"?>
<!-- Generator: Adobe Illustrator 19.0.0, SVG Export Plug-In . SVG Version: 6.00 Build 0)  -->
<svg version="1.1" id="Layer_1" xmlns="http://www.w3.org/2000/svg" xmlns:xlink="http://www.w3.org/1999/xlink" x="0px" y="0px"
	 viewBox="0 0 512.001 512.001" style="enable-background:new 0 0 512.001 512.001;" xml:space="preserve">
<g>
	<g>
		<path d="M345.54,172.374l85.213-85.213c10.743-10.744,3.077-29.134-12.068-29.134H166.812c1.402-5.214,1.924-10.785,1.351-16.555
			c-2.227-22.368-20.703-40.104-43.145-41.395C98.387-1.452,76.232,19.775,76.232,46.08c0,19.596,12.3,36.363,29.582,43.015v405.39
			c0,8.761,6.418,16.447,15.126,17.408c10.295,1.136,19.008-6.895,19.008-16.96V286.72h278.737
			c15.195,0,22.776-18.426,12.067-29.134L345.54,172.374z"/>
	</g>
</g>
<g>
</g>
<g>
</g>
<g>
</g>
<g>
</g>
<g>
</g>
<g>
</g>
<g>
</g>
<g>
</g>
<g>
</g>
<g>
</g>
<g>
</g>
<g>
</g>
<g>
</g>
<g>
</g>
<g>
</g>
</svg>
