<?xml version="1.0" encoding="utf-8"?>
<!-- Generator: Adobe Illustrator 16.0.0, SVG Export Plug-In . SVG Version: 6.00 Build 0)  -->
<!DOCTYPE svg PUBLIC "-//W3C//DTD SVG 1.1//EN" "http://www.w3.org/Graphics/SVG/1.1/DTD/svg11.dtd">
<svg version="1.1" id="Layer_1" xmlns="http://www.w3.org/2000/svg" xmlns:xlink="http://www.w3.org/1999/xlink" x="0px" y="0px"
	 width="50px" height="50px" viewBox="0 0 50 50" enable-background="new 0 0 50 50" xml:space="preserve">
<g>
	<g>
		<path fill="#FFFFFF" d="M48.347,23.798l-2.773-0.73c-0.332-0.088-0.683-0.108-1.024-0.057c-0.354-2.751-1.303-5.391-2.79-7.733
			l2.373-4.019c0.548-0.926,0.327-1.468,0.049-1.754c-0.279-0.288-0.822-0.516-1.757,0l-3.675,2.091
			c-3.158-3.027-7.246-4.902-11.603-5.322l-1.206-4.502c-0.296-1.042-0.821-1.264-1.239-1.264c-0.401,0-0.935,0.222-1.223,1.264
			L22.234,6.38c-4.121,0.593-7.946,2.486-10.916,5.405L7.349,9.521c-0.936-0.532-1.468-0.304-1.755,0
			c-0.287,0.304-0.5,0.821,0.05,1.755l2.6,4.379c-1.359,2.253-2.226,4.768-2.543,7.38c-0.342-0.047-0.69-0.026-1.024,0.066
			l-2.772,0.731c-1.058,0.237-1.271,0.77-1.271,1.171s0.222,0.936,1.263,1.214l2.723,0.705c0.313,0.083,0.636,0.129,0.959,0.132
			h0.058c0.236,2.71,1.053,5.336,2.395,7.7l-2.387,4.004c-0.55,0.935-0.328,1.468-0.05,1.754c0.194,0.2,0.46,0.31,0.738,0.303
			c0.361-0.016,0.711-0.126,1.017-0.322l3.453-1.966c3.079,3.278,7.2,5.388,11.661,5.969l1.017,3.743
			c0.28,1.041,0.821,1.253,1.223,1.253c0.402,0,0.935-0.22,1.222-1.253l0.992-3.658c4.696-0.4,9.087-2.488,12.36-5.879l3.139,1.783
			c0.306,0.192,0.657,0.306,1.019,0.322c0.278,0.008,0.545-0.103,0.737-0.302c0.277-0.287,0.501-0.824-0.049-1.755l-2.114-3.604
			c1.479-2.468,2.373-5.24,2.615-8.112h0.057c0.318,0.004,0.636-0.033,0.942-0.112l2.707-0.712c1.05-0.271,1.262-0.822,1.262-1.208
			C49.593,24.619,49.396,24.069,48.347,23.798z M15.056,34.166c-0.046,0.072-0.12,0.129-0.204,0.155l0.033-0.026l-4.354,2.46
			l-2.739,1.6l4.1-6.953c0.064-0.133,0.185-0.23,0.328-0.264c0.133,0.011,0.257,0.074,0.345,0.173l2.378,2.347
			C15.115,33.768,15.166,33.993,15.056,34.166z M15.171,16.165c-0.026,0.084-0.08,0.156-0.155,0.203l-0.049-0.007l-2.378,2.346
			c-0.129,0.186-0.384,0.233-0.571,0.104c-0.068-0.049-0.122-0.116-0.15-0.195V18.55l-4.084-6.896l3.28,1.853l3.863,2.198
			C15.121,15.763,15.23,15.97,15.171,16.165z M22.57,11.333l2.117-7.799l0.999,3.69l0.919,3.395l0.19,0.706
			c0.094,0.191,0.016,0.423-0.175,0.517c-0.077,0.037-0.163,0.048-0.244,0.034h-3.372c-0.209,0.04-0.41-0.097-0.45-0.307
			c-0.016-0.082-0.005-0.168,0.033-0.244L22.57,11.333z M26.803,38.668l-2.116,7.798l-0.82-2.921l-1.32-4.87
			c-0.095-0.191-0.018-0.422,0.174-0.517c0.075-0.039,0.161-0.049,0.244-0.035h3.396c0.208-0.036,0.41,0.099,0.45,0.306
			c0.016,0.085,0.006,0.171-0.033,0.246L26.803,38.668z M24.76,27.467c-0.02,0-0.039,0-0.058-0.004
			c-1.358-0.031-2.434-1.156-2.402-2.516c0.033-1.357,1.159-2.434,2.517-2.401c1.336,0.03,2.402,1.123,2.402,2.458
			C27.219,26.363,26.119,27.463,24.76,27.467z M34.668,15.843c0.046-0.075,0.119-0.13,0.203-0.155v0.017l0.731-0.417l6.38-3.633
			l-1.888,3.207l-2.205,3.748c-0.079,0.212-0.314,0.32-0.527,0.242c-0.078-0.029-0.146-0.082-0.195-0.152l-2.385-2.345
			C34.608,16.243,34.559,16.014,34.668,15.843z M39.547,36.963l-4.676-2.661c-0.193-0.057-0.304-0.263-0.244-0.459
			c0.024-0.083,0.081-0.155,0.156-0.204l1.285-1.252l1.106-1.084c0.092-0.102,0.214-0.161,0.349-0.173
			c0.142,0.033,0.262,0.128,0.323,0.264l0.313,0.532l3.779,6.429L39.547,36.963z"/>
	</g>
</g>
</svg>
