<?xml version="1.0" encoding="utf-8"?>
<!-- Generator: Adobe Illustrator 16.0.0, SVG Export Plug-In . SVG Version: 6.00 Build 0)  -->
<!DOCTYPE svg PUBLIC "-//W3C//DTD SVG 1.1//EN" "http://www.w3.org/Graphics/SVG/1.1/DTD/svg11.dtd">
<svg version="1.1" id="Layer_1" xmlns="http://www.w3.org/2000/svg" xmlns:xlink="http://www.w3.org/1999/xlink" x="0px" y="0px"
	 width="50px" height="50px" viewBox="0 0 50 50" enable-background="new 0 0 50 50" xml:space="preserve">
<path fill="white" d="M40.604,15.371l1.909-1.908c0.74-0.742,0.74-1.943,0-2.684c-0.742-0.742-1.942-0.742-2.686,0l-1.907,1.908
	c-3.2-2.667-7.091-4.278-11.239-4.655V4.21h1.835c1.049,0,1.898-0.85,1.898-1.899c0-1.048-0.85-1.898-1.898-1.898H21.05
	c-1.049,0-1.898,0.85-1.898,1.898c0,1.049,0.85,1.899,1.898,1.899h1.835v3.821C12.499,8.976,4.219,17.699,4.219,28.506
	c0,11.367,9.197,20.566,20.564,20.566c11.366,0,20.564-9.197,20.564-20.566C45.348,23.652,43.676,19.054,40.604,15.371z
	 M24.783,45.274c-9.245,0-16.768-7.52-16.768-16.769c0-9.244,7.523-16.767,16.768-16.767c9.246,0,16.769,7.522,16.769,16.767
	C41.552,37.755,34.029,45.274,24.783,45.274z M33.581,19.71c0.74,0.741,0.74,1.944,0,2.685l-7.456,7.456
	c-0.74,0.74-1.943,0.74-2.684,0c-0.741-0.743-0.741-1.945,0-2.685l7.454-7.456C31.638,18.969,32.84,18.969,33.581,19.71z"/>
</svg>
